<?xml version="1.0" standalone="no"?>
<!DOCTYPE svg PUBLIC "-//W3C//DTD SVG 20010904//EN"
 "http://www.w3.org/TR/2001/REC-SVG-20010904/DTD/svg10.dtd">
<svg version="1.0" xmlns="http://www.w3.org/2000/svg"
 width="95.000000pt" height="95.000000pt" viewBox="0 0 95.000000 95.000000"
 preserveAspectRatio="xMidYMid meet">
<metadata>
Created by potrace 1.14, written by Peter Selinger 2001-2017
</metadata>
<g transform="translate(0.000000,95.000000) scale(0.100000,-0.100000)"
fill="#000000" stroke="none">
<path d="M648 862 c-2 -44 -7 -58 -20 -60 -13 -3 -16 4 -14 40 3 52 -2 68 -20
68 -15 0 -16 -5 -16 -67 0 -36 -4 -43 -19 -43 -22 0 -43 43 -34 69 6 21 -10
46 -24 37 -16 -10 -13 -73 5 -112 15 -32 24 -38 50 -35 6 1 17 -5 23 -13 11
-13 6 -15 -29 -14 -41 0 -71 -15 -57 -29 4 -4 32 -7 62 -8 60 -1 101 -27 90
-57 -5 -13 -10 -13 -43 3 -54 28 -122 24 -122 -7 0 -10 12 -14 40 -14 45 0 90
-18 90 -36 0 -18 -24 -24 -96 -24 -49 0 -64 -3 -64 -15 0 -20 59 -29 116 -17
27 6 51 9 55 6 4 -2 10 -25 14 -51 14 -103 63 -275 76 -268 16 11 10 65 -23
197 -29 120 -30 132 -18 182 16 69 8 100 -30 116 -16 7 -30 14 -30 15 0 17 16
35 30 35 25 0 36 18 43 68 6 50 0 79 -19 86 -10 4 -14 -9 -16 -52z"/>
<path d="M255 899 c-12 -19 -7 -76 9 -108 16 -30 25 -35 54 -32 7 1 16 -8 21
-21 6 -18 1 -29 -27 -58 -41 -42 -87 -107 -96 -137 -10 -32 9 -36 29 -6 l18
27 21 -44 21 -45 -32 -80 c-38 -95 -55 -163 -42 -171 9 -5 16 10 80 165 33 82
101 171 139 183 20 6 15 65 -10 123 -21 49 -22 50 -52 34 -16 -9 -19 -8 -16 3
2 7 18 19 34 27 39 19 44 28 44 87 0 36 -4 54 -14 57 -16 6 -32 -26 -21 -42 9
-16 -6 -61 -21 -61 -14 0 -18 9 -16 45 2 36 -8 65 -22 65 -19 0 -23 -17 -20
-67 3 -37 1 -43 -16 -43 -20 0 -43 37 -33 53 7 12 -6 57 -17 57 -5 0 -12 -5
-15 -11z m166 -257 c6 -15 2 -28 -11 -44 -10 -13 -20 -21 -22 -18 -3 3 -14 22
-26 42 -19 34 -20 38 -5 47 23 12 55 -1 64 -27z m-68 -100 c-17 -28 -29 -23
-48 17 -15 33 -16 43 -5 56 11 14 16 11 38 -21 18 -27 22 -41 15 -52z"/>
<path d="M369 464 c-19 -23 7 -45 45 -39 17 2 60 7 96 10 35 3 68 9 73 14 17
17 -19 26 -110 27 -69 2 -95 -2 -104 -12z"/>
<path d="M337 381 c-13 -27 1 -36 56 -37 32 -1 60 -4 63 -7 3 -2 6 -68 7 -145
1 -77 5 -143 9 -147 17 -17 27 42 26 146 -2 157 -1 159 73 159 46 0 59 3 59
15 0 8 -6 16 -12 16 -44 5 -279 5 -281 0z"/>
<path d="M390 302 c0 -5 -20 -45 -44 -89 -40 -75 -47 -112 -19 -95 18 11 93
149 93 172 0 11 -7 20 -15 20 -8 0 -15 -4 -15 -8z"/>
<path d="M540 291 c0 -23 44 -122 72 -163 20 -28 38 -37 38 -18 0 10 -59 145
-78 179 -13 23 -32 24 -32 2z"/>
</g>
</svg>
