<?xml version="1.0" standalone="no"?>
<!DOCTYPE svg PUBLIC "-//W3C//DTD SVG 20010904//EN"
 "http://www.w3.org/TR/2001/REC-SVG-20010904/DTD/svg10.dtd">
<svg version="1.0" xmlns="http://www.w3.org/2000/svg"
 width="277.000000pt" height="277.000000pt" viewBox="0 0 277.000000 277.000000"
 preserveAspectRatio="xMidYMid meet">
<metadata>
Created by potrace 1.14, written by Peter Selinger 2001-2017
</metadata>
<g transform="translate(0.000000,277.000000) scale(0.100000,-0.100000)"
fill="#000000" stroke="none">
<path d="M1512 2750 c-40 -25 -56 -59 -48 -102 11 -60 21 -66 54 -35 62 59 91
23 62 -79 -40 -144 -30 -135 -188 -182 -76 -23 -143 -42 -149 -42 -6 0 -16 21
-24 48 -35 125 -224 223 -378 197 -63 -10 -61 -15 82 -224 11 -17 16 -40 15
-65 -3 -38 -5 -40 -58 -58 -57 -20 -143 -26 -195 -14 -45 11 -77 -27 -83 -99
-4 -48 0 -65 27 -120 35 -71 76 -125 95 -125 7 0 61 32 121 71 98 64 109 69
119 52 5 -10 29 -39 54 -65 l44 -47 -29 -14 c-35 -18 -69 -55 -59 -64 4 -4 26
-6 51 -4 35 2 46 -1 54 -18 6 -11 8 -28 4 -38 -5 -15 -89 -161 -99 -172 -2 -2
-14 3 -26 11 -21 14 -23 23 -23 109 -1 69 -5 103 -18 126 -20 37 -63 73 -88
73 -16 0 -18 -8 -17 -63 1 -78 -10 -100 -115 -224 -45 -54 -98 -119 -117 -145
-28 -38 -41 -47 -65 -48 -93 -1 -140 -42 -111 -98 33 -63 44 -67 222 -72 104
-3 167 -9 175 -17 49 -49 -370 -524 -573 -650 -32 -20 -55 -39 -53 -43 5 -9
99 10 180 37 76 24 133 55 222 121 135 101 246 223 374 414 33 48 61 88 64 88
5 0 126 -70 142 -83 9 -6 10 -15 3 -27 -14 -27 -164 -132 -246 -173 -39 -20
-74 -43 -78 -52 -3 -9 -6 -42 -6 -74 0 -66 19 -101 55 -101 14 0 90 20 169 45
80 25 153 45 161 45 29 0 45 -63 45 -177 0 -206 -9 -217 -136 -185 -88 22
-111 16 -68 -19 52 -42 215 -210 240 -249 27 -41 45 -53 67 -44 20 7 75 104
87 154 16 67 25 511 11 551 -6 18 -7 37 -3 41 5 5 74 13 153 18 118 7 146 12
156 26 24 33 15 65 -32 112 l-45 45 -73 -6 c-78 -6 -368 -78 -511 -126 -116
-40 -131 -39 -81 5 66 58 133 91 280 139 77 25 167 60 200 78 56 30 60 35 63
70 2 22 -2 53 -8 70 -9 26 -7 34 9 51 20 19 20 19 73 -16 29 -20 121 -98 203
-173 284 -260 347 -287 672 -289 128 -1 155 2 169 15 24 24 11 51 -52 108 -68
62 -164 110 -309 152 -168 49 -282 109 -469 247 -54 40 -111 79 -127 88 -16 8
-29 20 -29 27 0 18 70 151 118 225 45 69 45 92 3 151 -23 32 -103 89 -138 98
-32 7 -78 -13 -94 -43 -15 -28 -88 -73 -172 -104 -99 -37 -98 -75 3 -84 119
-10 161 -18 167 -32 3 -7 -9 -44 -26 -80 -23 -49 -35 -65 -46 -60 -9 3 -68 22
-133 42 -64 20 -121 40 -126 45 -6 5 -4 16 5 26 24 29 76 116 84 140 5 18 -4
33 -41 73 l-47 50 56 0 c138 0 200 33 287 153 48 66 63 79 120 105 80 36 158
62 230 76 78 16 80 40 8 113 -58 60 -113 93 -153 93 -31 0 -31 9 0 68 14 26
25 61 25 78 0 42 -49 107 -107 144 -40 25 -57 30 -112 30 -48 0 -75 -5 -99
-20z m-129 -563 c36 -13 57 -27 57 -37 0 -24 -52 -100 -96 -142 -43 -40 -150
-98 -182 -98 -18 0 -20 5 -15 38 3 20 23 76 44 123 22 47 39 93 39 102 0 24
41 49 70 42 14 -3 51 -15 83 -28z m-482 -735 c26 -24 30 -33 25 -58 -4 -16
-15 -39 -24 -52 l-18 -23 -62 20 c-34 12 -68 21 -77 21 -8 0 -15 6 -15 13 0
17 38 79 58 95 28 21 79 14 113 -16z m354 9 c111 -27 157 -48 153 -69 -9 -51
-358 -212 -358 -165 0 6 22 55 49 109 26 55 51 109 55 122 9 27 2 26 101 3z"/>
<path d="M1585 630 c-4 -7 5 -24 24 -44 38 -39 39 -56 6 -56 -25 0 -24 -2 22
-48 26 -27 72 -90 102 -140 30 -51 60 -97 67 -103 42 -35 97 49 97 145 -1 109
-53 196 -137 231 -52 22 -171 32 -181 15z"/>
<path d="M947 549 c-25 -16 -51 -36 -57 -44 -18 -22 -40 -18 -40 6 0 32 -19
59 -40 59 -26 0 -55 -47 -80 -129 -32 -102 -24 -184 26 -263 49 -78 70 -63
139 97 26 61 65 145 86 187 22 43 39 84 39 92 0 27 -29 25 -73 -5z"/>
</g>
</svg>
