<?xml version="1.0" standalone="no"?>
<!DOCTYPE svg PUBLIC "-//W3C//DTD SVG 20010904//EN"
 "http://www.w3.org/TR/2001/REC-SVG-20010904/DTD/svg10.dtd">
<svg version="1.0" xmlns="http://www.w3.org/2000/svg"
 width="94.000000pt" height="94.000000pt" viewBox="0 0 94.000000 94.000000"
 preserveAspectRatio="xMidYMid meet">
<g transform="translate(0.000000,94.000000) scale(0.100000,-0.100000)"
fill="#000000" stroke="none">
<path d="M638 853 c-2 -45 -7 -59 -20 -61 -14 -3 -16 4 -14 42 3 52 -5 71 -26
64 -9 -4 -13 -22 -13 -57 1 -43 -1 -51 -16 -51 -23 0 -41 33 -34 62 6 27 -8
53 -24 44 -16 -10 -13 -72 5 -109 20 -38 30 -46 54 -40 9 3 20 -2 23 -10 4
-12 -3 -15 -34 -14 -37 1 -70 -16 -57 -29 4 -3 32 -7 63 -8 62 -3 101 -28 89
-59 -4 -12 -10 -14 -18 -8 -21 17 -94 34 -120 27 -42 -10 -33 -36 14 -36 45 0
90 -18 90 -36 0 -17 -24 -24 -90 -24 -54 0 -82 -12 -65 -28 7 -7 111 -7 149 0
17 3 22 -10 42 -104 31 -148 53 -220 64 -213 17 11 11 65 -21 193 -29 118 -30
140 -13 214 10 43 -3 74 -36 88 -16 7 -30 14 -30 15 0 17 16 35 30 35 27 0 39
21 43 79 3 36 0 57 -10 67 -8 8 -16 14 -18 14 -2 0 -5 -26 -7 -57z"/>
<path d="M245 889 c-20 -32 8 -137 38 -141 6 0 18 -2 26 -2 23 -2 33 -44 13
-58 -27 -20 -97 -110 -110 -141 -17 -40 -4 -53 21 -21 l21 27 20 -44 21 -44
-32 -80 c-38 -95 -55 -163 -42 -171 9 -5 27 31 77 156 41 102 96 176 143 192
18 6 13 68 -10 121 -21 49 -29 55 -49 35 -6 -6 -15 -9 -18 -5 -9 9 15 37 32
37 26 0 44 31 44 78 0 46 -13 82 -25 71 -3 -3 -7 -27 -9 -54 -2 -26 -10 -51
-17 -56 -19 -11 -21 -7 -23 53 -1 45 -4 53 -20 53 -17 0 -20 -7 -20 -52 -1
-28 -4 -54 -7 -57 -12 -12 -39 21 -40 49 -3 59 -17 82 -34 54z m164 -251 c9
-23 -5 -58 -25 -65 -11 -3 -54 73 -46 81 3 4 18 6 34 6 20 0 31 -6 37 -22z
m-66 -106 c-17 -28 -29 -23 -48 17 -15 33 -16 43 -5 56 11 14 16 11 38 -21 18
-27 22 -41 15 -52z"/>
<path d="M360 450 c-11 -20 11 -47 29 -36 5 4 46 8 91 10 146 5 126 44 -23 44
-74 0 -89 -3 -97 -18z"/>
<path d="M325 369 c-3 -4 -2 -14 1 -23 5 -13 19 -16 60 -15 30 1 56 0 59 -2 2
-3 5 -66 6 -140 1 -141 8 -178 28 -141 6 11 10 68 9 133 -2 156 -1 159 73 159
46 0 59 3 59 15 0 8 -3 16 -7 16 -30 6 -285 4 -288 -2z"/>
<path d="M380 292 c0 -5 -20 -46 -45 -92 -44 -82 -50 -117 -14 -84 26 23 89
140 89 164 0 11 -7 20 -15 20 -8 0 -15 -4 -15 -8z"/>
<path d="M530 277 c0 -25 62 -153 85 -176 30 -31 26 2 -11 89 -40 93 -74 133
-74 87z"/>
</g>
</svg>
