<?xml version="1.0" standalone="no"?>
<!DOCTYPE svg PUBLIC "-//W3C//DTD SVG 20010904//EN"
 "http://www.w3.org/TR/2001/REC-SVG-20010904/DTD/svg10.dtd">
<svg version="1.0" xmlns="http://www.w3.org/2000/svg"
 width="277.000000pt" height="277.000000pt" viewBox="0 0 277.000000 277.000000"
 preserveAspectRatio="xMidYMid meet">
<metadata>
Created by potrace 1.14, written by Peter Selinger 2001-2017
</metadata>
<g transform="translate(0.000000,277.000000) scale(0.100000,-0.100000)"
fill="#000000" stroke="none">
<path d="M1522 2757 c-56 -51 -61 -58 -57 -98 2 -22 9 -47 16 -55 11 -13 16
-11 41 14 29 32 61 34 72 5 7 -18 -9 -90 -36 -166 -18 -51 -31 -70 -48 -73
-13 -2 -99 -28 -139 -41 -53 -18 -88 -26 -120 -27 -20 -1 -26 5 -32 32 -16 76
-94 153 -190 185 -46 16 -214 26 -226 13 -10 -10 57 -138 87 -166 34 -31 50
-68 50 -111 0 -27 -3 -49 -7 -49 -5 -1 -48 -11 -97 -24 -82 -22 -92 -22 -124
-9 -67 28 -118 -27 -110 -117 5 -53 50 -149 90 -192 l28 -30 37 23 c21 12 74
46 118 75 l80 52 18 -32 c11 -17 35 -45 53 -62 40 -37 42 -50 12 -59 -25 -8
-68 -44 -68 -57 0 -4 22 -8 49 -8 86 0 89 -36 13 -155 -24 -38 -46 -72 -49
-75 -2 -2 -16 3 -30 12 -27 16 -27 18 -24 106 3 100 -15 154 -63 185 -46 31
-55 23 -54 -45 1 -41 -4 -74 -14 -94 -14 -26 -140 -189 -158 -204 -3 -3 -27
-32 -52 -65 -44 -58 -47 -60 -94 -62 -108 -5 -129 -56 -54 -132 l32 -32 102 5
c100 4 223 -7 238 -22 10 -10 -63 -129 -137 -224 -87 -110 -352 -367 -421
-408 -65 -38 -89 -58 -81 -67 10 -10 220 59 289 94 149 77 334 259 470 463 39
58 74 107 79 108 12 5 132 -63 150 -84 12 -14 9 -21 -26 -50 -57 -49 -192
-138 -246 -162 -50 -23 -59 -39 -59 -109 0 -53 17 -92 44 -99 12 -2 93 18 180
45 88 27 165 47 172 44 25 -9 35 -72 33 -205 -1 -74 -6 -144 -11 -157 -8 -22
-12 -23 -61 -18 -29 4 -74 14 -100 23 -27 9 -50 14 -53 12 -9 -10 7 -34 34
-50 29 -17 157 -148 233 -238 l47 -55 24 23 c34 31 66 99 78 163 5 30 11 160
14 289 4 195 2 238 -10 254 -7 11 -14 23 -14 27 0 9 62 16 203 24 112 7 126
11 128 34 5 48 -3 68 -38 101 -32 31 -44 35 -92 36 -34 1 -110 -11 -196 -33
-77 -18 -149 -36 -160 -38 -46 -11 -193 -59 -233 -77 -40 -18 -62 -17 -62 1 0
24 181 135 236 145 49 10 209 68 271 100 61 30 69 37 71 66 1 17 -3 50 -9 73
-10 37 -9 43 11 59 20 17 23 16 73 -20 46 -32 207 -173 276 -243 42 -41 140
-118 186 -144 99 -58 229 -81 455 -79 150 1 170 26 87 108 -77 75 -190 130
-352 172 -108 28 -350 158 -430 231 -19 17 -104 73 -150 99 -11 6 -20 17 -20
25 0 20 82 177 121 230 53 73 43 122 -41 190 -85 68 -144 72 -185 12 -22 -33
-115 -89 -180 -108 -35 -10 -60 -35 -60 -57 0 -17 6 -19 43 -17 23 1 77 -4
120 -11 64 -12 77 -17 77 -33 0 -21 -47 -124 -61 -132 -15 -10 -279 78 -279
93 0 7 11 28 24 45 44 59 73 122 65 144 -4 11 -24 34 -45 51 -43 36 -41 38 58
46 117 9 164 40 259 167 32 44 62 73 87 84 20 9 46 20 57 25 39 18 195 61 202
57 19 -11 53 13 53 37 0 47 -151 166 -211 166 -25 0 -24 16 6 72 29 55 31 78
9 119 -19 37 -92 109 -110 109 -8 0 -14 5 -14 10 0 14 -152 12 -168 -3z m-142
-566 c52 -21 64 -31 62 -46 -5 -28 -60 -105 -101 -142 -37 -34 -163 -103 -188
-103 -24 0 -9 84 28 161 17 35 38 82 46 104 23 65 50 69 153 26z m-513 -710
c7 -1 24 -12 39 -26 22 -21 25 -30 20 -59 -4 -19 -15 -45 -25 -57 -18 -22 -19
-22 -72 -6 -30 9 -66 19 -81 23 -33 7 -33 5 -8 53 24 49 65 82 94 77 11 -3 26
-5 33 -5z m445 -32 c72 -21 112 -47 100 -65 -16 -25 -151 -103 -229 -133 -73
-27 -143 -40 -143 -26 0 3 22 49 48 102 27 54 54 111 61 126 11 27 14 28 54
22 23 -4 72 -15 109 -26z"/>
<path d="M1585 630 c-5 -8 4 -24 24 -42 44 -42 41 -63 -9 -59 -9 1 -5 -6 10
-16 38 -28 60 -56 131 -171 36 -59 73 -108 82 -110 55 -11 97 132 68 234 -22
79 -71 130 -156 159 -43 14 -142 18 -150 5z"/>
<path d="M984 573 c-12 -2 -40 -22 -62 -43 -41 -40 -71 -51 -73 -27 -7 69 -44
89 -76 40 -34 -51 -62 -154 -60 -218 4 -98 69 -213 108 -190 8 6 79 148 79
161 0 2 24 54 54 116 76 159 78 169 30 161z"/>
</g>
</svg>
